<svg width="36" height="36" viewBox="0 0 36 36" fill="none" xmlns="http://www.w3.org/2000/svg">
<g clip-path="url(#clip0_837_17027)">
<g clip-path="url(#clip1_837_17027)">
<path d="M18 36C27.9411 36 36 27.9411 36 18C36 8.05888 27.9411 0 18 0C8.05888 0 0 8.05888 0 18C0 27.9411 8.05888 36 18 36Z" fill="#D8D8D8"/>
<mask id="mask0_837_17027" style="mask-type:luminance" maskUnits="userSpaceOnUse" x="0" y="0" width="36" height="36">
<path d="M18 36C27.9411 36 36 27.9411 36 18C36 8.05888 27.9411 0 18 0C8.05888 0 0 8.05888 0 18C0 27.9411 8.05888 36 18 36Z" fill="white"/>
</mask>
<g mask="url(#mask0_837_17027)">
<path fill-rule="evenodd" clip-rule="evenodd" d="M22.8731 22.2247C24.1945 23.0878 25.2798 24.2669 26.0306 25.6552C26.7814 27.0435 27.1741 28.5971 27.173 30.1754V39.673H8.17774V30.1764C8.17677 28.5984 8.56936 27.0451 9.31997 25.657C10.0706 24.2689 11.1555 23.0899 12.4766 22.2268C13.1179 22.9788 13.915 23.5825 14.8126 23.9962C15.7102 24.41 16.687 24.6238 17.6754 24.6229C18.6638 24.6238 19.6405 24.41 20.5381 23.9962C21.4358 23.5825 22.2328 22.9788 22.8742 22.2268L22.8731 22.2247ZM17.9136 22.6397C14.2903 22.6397 11.3531 19.3955 11.3531 15.3932C11.3531 11.3908 14.2903 8.14551 17.9136 8.14551C21.5369 8.14551 24.4741 11.3897 24.4741 15.3932C24.4741 19.3955 21.5369 22.6397 17.9136 22.6397Z" fill="white"/>
</g>
</g>
</g>
<defs>
<clipPath id="clip0_837_17027">
<rect width="36" height="36" fill="white"/>
</clipPath>
<clipPath id="clip1_837_17027">
<rect width="36" height="36" fill="white"/>
</clipPath>
</defs>
</svg>
