<svg width="28" height="28" viewBox="0 0 28 28" fill="none" xmlns="http://www.w3.org/2000/svg">
<path d="M14 0C21.7324 0 28 6.26762 28 14C28 21.7324 21.7324 28 14 28C6.26762 28 0 21.7324 0 14C0 6.26762 6.26762 0 14 0Z" fill="#1877F2"/>
<path d="M15.75 15.3125H17.9375L18.8125 11.8125H15.75V10.0625C15.75 9.16125 15.75 8.3125 17.5 8.3125H18.8125V5.3725C18.5273 5.33487 17.4501 5.25 16.3126 5.25C13.937 5.25 12.25 6.69987 12.25 9.3625V11.8125H9.625V15.3125H12.25V22.75H15.75V15.3125Z" fill="white"/>
</svg>
