<svg width="28" height="28" viewBox="0 0 28 28" fill="none" xmlns="http://www.w3.org/2000/svg">
<path d="M14 0C21.7324 0 28 6.26762 28 14C28 21.7324 21.7324 28 14 28C6.26762 28 0 21.7324 0 14C0 6.26762 6.26762 0 14 0Z" fill="#595959"/>
<path d="M10.5 17.5H17.5V21H10.5V17.5ZM18.9 19.6V16.1H9.1V19.6H7.7C7.5145 19.6 7.336 19.5265 7.20475 19.3953C7.0735 19.264 7 19.0855 7 18.9V11.9C7 11.7145 7.0735 11.536 7.20475 11.4048C7.336 11.2735 7.5145 11.2 7.7 11.2H20.3C20.4855 11.2 20.664 11.2735 20.7953 11.4048C20.9265 11.536 21 11.7145 21 11.9V18.9C21 19.0855 20.9265 19.264 20.7953 19.3953C20.664 19.5265 20.4864 19.6 20.3 19.6H18.9ZM9.1 12.6V14H11.2V12.6H9.1ZM10.5 7H17.5C17.6855 7 17.864 7.0735 17.9952 7.20475C18.1265 7.336 18.2 7.5145 18.2 7.7V9.8H9.8V7.7C9.8 7.5145 9.8735 7.336 10.0048 7.20475C10.136 7.0735 10.3145 7 10.5 7Z" fill="white"/>
</svg>
