<svg width="28" height="28" viewBox="0 0 28 28" fill="none" xmlns="http://www.w3.org/2000/svg">
<path d="M14 0C21.7324 0 28 6.26762 28 14C28 21.7324 21.7324 28 14 28C6.26762 28 0 21.7324 0 14C0 6.26762 6.26762 0 14 0Z" fill="#FFCDD2"/>
<path d="M13.7812 16.2969H12.25C10.9944 16.2969 9.7615 16.639 8.687 17.2882C7.61163 17.9375 6.73487 18.8676 6.1495 19.9797C6.13287 19.7732 6.125 19.5659 6.125 19.3594C6.125 15.1305 9.55237 11.7031 13.7812 11.7031V7.875L21.4375 14L13.7812 20.125V16.2969Z" fill="#D60000"/>
</svg>
